HIERARCHY
ROOT Hips
{
	OFFSET 0.000000 35.069874 -0.029489
	CHANNELS 6 Xposition Yposition Zposition Xrotation Yrotation Zrotation 
	JOINT Spine
	{
		OFFSET 0.000000 6.876060 0.125662
		CHANNELS 3 Xrotation Yrotation Zrotation
		JOINT Spine1
		{
			OFFSET 0.000000 5.730046 0.104717
			CHANNELS 3 Xrotation Yrotation Zrotation
			JOINT Spine1_split
			{
				OFFSET 0.000000 5.730046 0.104717
				CHANNELS 3 Xrotation Yrotation Zrotation
				JOINT Spine2
				{
					OFFSET 0.000000 5.730046 0.104717
					CHANNELS 3 Xrotation Yrotation Zrotation
					JOINT Neck
					{
						OFFSET 0.000000 10.314075 0.188489
						CHANNELS 3 Xrotation Yrotation Zrotation
						JOINT Head
						{
							OFFSET 0.000000 7.643753 -2.377445
							CHANNELS 3 Xrotation Yrotation Zrotation
							JOINT HeadTop_End
							{
								OFFSET 0.000000 43.788605 -13.619637
								CHANNELS 3 Xrotation Yrotation Zrotation
								End Site
								{
									OFFSET 0.000000 0.000000 0.000000
								}
							}
						}
					}
					JOINT LeftShoulder
					{
						OFFSET 2.196093 4.412501 0.087498
						CHANNELS 3 Xrotation Yrotation Zrotation
						JOINT LeftShoulder_split
						{
							OFFSET 2.196093 4.412501 0.087498
							CHANNELS 3 Xrotation Yrotation Zrotation
							JOINT LeftArm
							{
								OFFSET 8.774866 -2.970879 -0.026997
								CHANNELS 3 Xrotation Yrotation Zrotation
								JOINT LeftForeArm
								{
									OFFSET 8.450586 -0.797432 -0.648343
									CHANNELS 3 Xrotation Yrotation Zrotation
									JOINT LeftHand
									{
										OFFSET 18.458662 0.962311 0.193148
										CHANNELS 3 Xrotation Yrotation Zrotation
										JOINT LeftHandThumb1
										{
											OFFSET 2.379990 -1.333382 2.680594
											CHANNELS 3 Xrotation Yrotation Zrotation
											JOINT LeftHandThumb2
											{
												OFFSET 1.903984 -1.066746 2.144473
												CHANNELS 3 Xrotation Yrotation Zrotation
												JOINT LeftHandThumb3
												{
													OFFSET 0.966393 -1.489639 2.964555
													CHANNELS 3 Xrotation Yrotation Zrotation
													JOINT LeftHandThumb4
													{
														OFFSET 1.205181 -0.823021 1.625701
														CHANNELS 3 Xrotation Yrotation Zrotation
														End Site
														{
															OFFSET 0.000000 0.000000 0.000000
														}
													}
												}
											}
										}
										JOINT LeftHandIndex1
										{
											OFFSET 7.830624 -0.787468 2.563931
											CHANNELS 3 Xrotation Yrotation Zrotation
											JOINT LeftHandIndex2
											{
												OFFSET 3.312897 -0.052605 1.515312
												CHANNELS 3 Xrotation Yrotation Zrotation
												JOINT LeftHandIndex3
												{
													OFFSET 3.460667 -0.207008 1.581951
													CHANNELS 3 Xrotation Yrotation Zrotation
													JOINT LeftHandIndex4
													{
														OFFSET 2.183182 0.110458 0.999585
														CHANNELS 3 Xrotation Yrotation Zrotation
														End Site
														{
															OFFSET 0.000000 0.000000 0.000000
														}
													}
												}
											}
										}
										JOINT LeftHandMiddle1
										{
											OFFSET 8.556145 -0.261200 0.258753
											CHANNELS 3 Xrotation Yrotation Zrotation
											JOINT LeftHandMiddle2
											{
												OFFSET 3.828903 -0.489014 -0.111505
												CHANNELS 3 Xrotation Yrotation Zrotation
												JOINT LeftHandMiddle3
												{
													OFFSET 3.696209 -0.166595 -0.107596
													CHANNELS 3 Xrotation Yrotation Zrotation
													JOINT LeftHandMiddle4
													{
														OFFSET 2.259281 0.534500 -0.065675
														CHANNELS 3 Xrotation Yrotation Zrotation
														End Site
														{
															OFFSET 0.000000 0.000000 0.000000
														}
													}
												}
											}
										}
										JOINT LeftHandRing1
										{
											OFFSET 8.509293 -0.556679 -3.044941
											CHANNELS 3 Xrotation Yrotation Zrotation
											JOINT LeftHandRing2
											{
												OFFSET 2.995171 -0.303261 -0.843591
												CHANNELS 3 Xrotation Yrotation Zrotation
												JOINT LeftHandRing3
												{
													OFFSET 2.968273 -0.101997 -0.834287
													CHANNELS 3 Xrotation Yrotation Zrotation
													JOINT LeftHandRing4
													{
														OFFSET 1.521358 -0.461468 -0.418735
														CHANNELS 3 Xrotation Yrotation Zrotation
														End Site
														{
															OFFSET 0.000000 0.000000 0.000000
														}
													}
												}
											}
										}
									}
								}
							}
						}
					}
					JOINT RightShoulder
					{
						OFFSET -2.196075 4.412512 0.070694
						CHANNELS 3 Xrotation Yrotation Zrotation
						JOINT RightShoulder_split
						{
							OFFSET -2.196075 4.412512 0.070694
							CHANNELS 3 Xrotation Yrotation Zrotation
							JOINT RightArm
							{
								OFFSET -8.774886 -2.970947 -0.094209
								CHANNELS 3 Xrotation Yrotation Zrotation
								JOINT RightForeArm
								{
									OFFSET -8.450586 -0.797386 -0.330665
									CHANNELS 3 Xrotation Yrotation Zrotation
									JOINT RightHand
									{
										OFFSET -18.458664 0.962341 0.025780
										CHANNELS 3 Xrotation Yrotation Zrotation
										JOINT RightHandThumb1
										{
											OFFSET -2.390282 -1.240040 2.604684
											CHANNELS 3 Xrotation Yrotation Zrotation
											JOINT RightHandThumb2
											{
												OFFSET -1.912228 -0.992111 2.083740
												CHANNELS 3 Xrotation Yrotation Zrotation
												JOINT RightHandThumb3
												{
													OFFSET -0.876358 -1.555370 2.930126
													CHANNELS 3 Xrotation Yrotation Zrotation
													JOINT RightHandThumb4
													{
														OFFSET -1.227077 -0.755932 1.835223
														CHANNELS 3 Xrotation Yrotation Zrotation
														End Site
														{
															OFFSET 0.000000 0.000000 0.000000
														}
													}
												}
											}
										}
										JOINT RightHandIndex1
										{
											OFFSET -8.716801 -0.633743 3.098187
											CHANNELS 3 Xrotation Yrotation Zrotation
											JOINT RightHandIndex2
											{
												OFFSET -3.319706 -0.240585 1.198087
												CHANNELS 3 Xrotation Yrotation Zrotation
												JOINT RightHandIndex3
												{
													OFFSET -3.153255 -0.154724 1.138827
													CHANNELS 3 Xrotation Yrotation Zrotation
													JOINT RightHandIndex4
													{
														OFFSET -1.818684 -0.003197 0.655154
														CHANNELS 3 Xrotation Yrotation Zrotation
														End Site
														{
															OFFSET 0.000000 0.000000 0.000000
														}
													}
												}
											}
										}
										JOINT RightHandMiddle1
										{
											OFFSET -8.158691 -0.528496 0.196552
											CHANNELS 3 Xrotation Yrotation Zrotation
											JOINT RightHandMiddle2
											{
												OFFSET -3.890194 -0.261169 -0.136423
												CHANNELS 3 Xrotation Yrotation Zrotation
												JOINT RightHandMiddle3
												{
													OFFSET -3.903057 -0.179909 -0.137173
													CHANNELS 3 Xrotation Yrotation Zrotation
													JOINT RightHandMiddle4
													{
														OFFSET -2.366261 0.198380 -0.083987
														CHANNELS 3 Xrotation Yrotation Zrotation
														End Site
														{
															OFFSET 0.000000 0.000000 0.000000
														}
													}
												}
											}
										}
										JOINT RightHandRing1
										{
											OFFSET -7.616104 -0.395126 -2.681268
											CHANNELS 3 Xrotation Yrotation Zrotation
											JOINT RightHandRing2
											{
												OFFSET -3.235790 -0.462120 -1.101476
												CHANNELS 3 Xrotation Yrotation Zrotation
												JOINT RightHandRing3
												{
													OFFSET -3.179264 -0.138618 -1.084847
													CHANNELS 3 Xrotation Yrotation Zrotation
													JOINT RightHandRing4
													{
														OFFSET -1.963291 -0.101624 -0.668250
														CHANNELS 3 Xrotation Yrotation Zrotation
														End Site
														{
															OFFSET 0.000000 0.000000 0.000000
														}
													}
												}
											}
										}
									}
								}
							}
						}
					}
				}
			}
		}
	}
	JOINT LeftUpLeg
	{
		OFFSET 10.205382 -3.823519 0.155145
		CHANNELS 3 Xrotation Yrotation Zrotation
		JOINT LeftLeg
		{
			OFFSET 0.283732 -12.998343 0.567794
			CHANNELS 3 Xrotation Yrotation Zrotation
			JOINT LeftFoot
			{
				OFFSET -1.058953 -10.688869 -2.184322
				CHANNELS 3 Xrotation Yrotation Zrotation
				JOINT LeftToeBase
				{
					OFFSET 0.108145 -7.191069 7.560211
					CHANNELS 3 Xrotation Yrotation Zrotation
					JOINT LeftToe_End
					{
						OFFSET 0.070226 0.081726 4.490266
						CHANNELS 3 Xrotation Yrotation Zrotation
						End Site
						{
							OFFSET 0.000000 0.000000 0.000000
						}
					}
				}
			}
		}
	}
	JOINT RightUpLeg
	{
		OFFSET -10.205383 -3.823513 0.005508
		CHANNELS 3 Xrotation Yrotation Zrotation
		JOINT RightLeg
		{
			OFFSET -0.283728 -12.998341 0.610627
			CHANNELS 3 Xrotation Yrotation Zrotation
			JOINT RightFoot
			{
				OFFSET 1.058956 -10.688892 -1.945833
				CHANNELS 3 Xrotation Yrotation Zrotation
				JOINT RightToeBase
				{
					OFFSET -0.108150 -7.191040 7.372945
					CHANNELS 3 Xrotation Yrotation Zrotation
					JOINT RightToe_End
					{
						OFFSET -0.070229 0.081738 4.479398
						CHANNELS 3 Xrotation Yrotation Zrotation
						End Site
						{
							OFFSET 0.000000 0.000000 0.000000
						}
					}
				}
			}
		}
	}
}
MOTION
Frames: 4
Frame Time: 0.016667
-0.475787 43.651947 -1.985972 -12.499957 -1.667450 -1.126366 -3.031575 -1.845411 2.157176 1.341456 -0.394055 2.093239 0.000000 0.000000 0.000000 1.345710 -0.282894 2.116650 9.657575 -4.849568 7.404082 10.314033 -25.265823 25.481332 -0.000001 -0.000000 0.000000 0.516763 0.363771 -1.620116 0.000000 0.000000 0.000000 -67.277425 7.225706 -0.883339 -147.356769 -80.061319 -149.734467 32.025394 -16.794945 61.626010 -21.962950 13.670946 -6.398551 -8.007687 33.487868 21.479439 -4.582807 -9.642602 -3.225075 -0.000001 -0.000003 -0.000002 -5.102715 20.051921 14.077873 -0.570575 0.116125 1.255706 2.581372 -0.022624 -5.639700 0.000002 -0.000004 0.000001 -0.505414 -0.517858 18.584070 -0.148110 0.473155 -7.514964 -0.495606 0.468354 -18.207819 -0.000001 0.000000 -0.000002 1.493015 -7.807703 15.777187 -2.271963 1.141645 -8.575049 2.662006 1.358383 9.228684 0.000001 0.000002 0.000002 0.412522 -1.336037 6.829468 0.000000 0.000000 0.000000 -57.153510 -5.798207 -8.764740 -138.873223 81.791734 141.457575 13.082257 32.995869 -75.415015 -3.401118 -6.997194 0.493519 2.587220 -35.405433 -13.168473 3.535783 11.848953 7.302090 0.000001 -0.000006 0.000001 4.784002 -19.327117 9.968606 0.947864 -0.182124 2.580923 1.118930 -0.018874 3.096651 0.000001 -0.000001 0.000006 0.630573 -2.332820 8.087003 -0.064851 -0.144081 2.154487 -0.050736 0.006182 7.475028 0.000001 -0.000001 0.000003 -0.703060 8.816433 2.301336 -1.819003 -0.101740 5.350618 0.616648 0.116873 -1.162296 -0.000001 -0.000002 0.000005 -2.313530 -32.927533 25.666106 99.512940 -7.842532 0.948068 12.590626 5.381883 1.636866 0.000024 -0.000003 0.000020 -0.000000 0.000000 0.000003 -12.632715 27.786591 -23.912663 68.460058 16.809662 -7.298557 25.871010 2.982609 20.030611 -0.000010 -0.000006 0.000008 0.000001 -0.000003 -0.000004 
-0.282492 43.092487 -1.513867 -11.475564 -1.865238 -1.478916 -4.367177 -2.280566 2.394636 2.021577 -0.426598 2.098099 0.000000 0.000000 0.000000 2.027288 -0.327234 2.120047 9.516432 -4.818838 7.555534 10.160702 -24.632271 24.655147 -0.000001 -0.000000 0.000001 0.564562 0.109983 -2.640081 0.000000 0.000000 0.000000 -65.200986 6.766091 -1.586169 -132.788358 -82.644039 -135.323000 32.270065 -16.905171 60.545529 -21.461578 14.025626 -6.023012 -7.856907 33.530184 21.349986 -4.524969 -9.641801 -3.256265 -0.000003 0.000002 -0.000000 -4.877958 20.191726 13.482607 -0.506296 0.140391 1.116863 2.613740 -0.014314 -5.709499 0.000000 0.000003 0.000003 -0.448569 -0.600356 17.825283 -0.147995 0.525980 -7.834420 -0.498797 0.510080 -18.449159 -0.000000 0.000000 -0.000001 1.454465 -8.149553 14.780405 -2.395427 1.256473 -9.080652 2.554216 1.418788 8.794696 -0.000000 0.000001 0.000002 0.561008 -1.704299 9.160023 0.000000 0.000000 0.000000 -54.596024 -8.540113 -7.609518 -123.881053 83.474583 126.584128 13.005509 36.608865 -73.456854 -3.071334 -7.409372 0.295119 2.587217 -35.405433 -13.168466 3.535784 11.848954 7.302084 -0.000000 -0.000003 0.000001 4.862483 -19.340302 10.185015 1.021615 -0.205591 2.778444 1.155246 -0.030375 3.195510 0.000001 -0.000001 -0.000001 0.622151 -2.227578 8.452486 -0.068947 -0.173006 2.341032 -0.085233 -0.028700 7.689990 -0.000000 0.000001 0.000001 -0.848847 9.075441 2.883216 -1.859199 -0.130906 5.479106 0.467320 0.048993 -0.814219 0.000001 0.000003 -0.000002 -4.183076 -23.950502 22.934939 92.022135 -6.393586 2.888781 7.095209 4.211890 1.093514 0.000031 -0.000018 0.000012 0.000000 0.000000 0.000001 -12.471726 21.278344 -23.054105 58.945803 16.292586 -7.475744 20.611897 4.571832 21.628438 0.000018 -0.000002 0.000012 0.000007 0.000000 -0.000000 
-0.083495 42.453484 -1.005245 -10.251440 -1.991766 -1.679326 -6.301230 -2.748375 2.412802 2.861511 -0.453706 2.096758 0.000000 0.000000 0.000000 2.868642 -0.368867 2.115151 9.329691 -4.722056 7.652864 9.856693 -23.667300 23.679660 -0.000001 0.000001 -0.000000 0.612455 -0.061220 -4.037994 0.000000 0.000000 0.000000 -62.652950 6.523308 -2.964229 -105.708044 -84.365786 -108.403797 31.617052 -16.868851 58.947271 -20.934415 14.403325 -5.635520 -7.697583 33.574649 21.213166 -4.463900 -9.640940 -3.289180 -0.000004 -0.000002 -0.000004 -4.637973 20.337424 12.850817 -0.437854 0.166042 0.969147 2.648178 -0.005535 -5.783738 -0.000001 0.000001 0.000002 -0.389988 -0.700705 17.008984 -0.147527 0.583998 -8.185078 -0.502123 0.556309 -18.716496 0.000001 0.000000 0.000001 1.398904 -8.539089 13.695436 -2.531024 1.384948 -9.640535 2.434600 1.487097 8.310996 -0.000000 -0.000000 0.000000 0.739607 -2.066456 11.659947 0.000000 0.000000 0.000000 -51.284165 -11.777103 -6.055323 -100.607505 84.476490 103.432669 11.775061 39.922664 -70.291758 -2.725095 -7.844399 0.090831 2.587219 -35.405433 -13.168466 3.535785 11.848955 7.302084 -0.000000 -0.000001 0.000004 4.945110 -19.353889 10.412714 1.099280 -0.230017 2.986223 1.193491 -0.042389 3.299542 0.000001 -0.000003 -0.000002 0.607292 -2.094829 8.864292 -0.076153 -0.225435 2.679207 -0.150505 -0.074520 7.961669 -0.000000 -0.000001 -0.000002 -1.030308 9.394157 3.560246 -2.003282 -0.236623 5.941191 0.255758 -0.040456 -0.376274 -0.000001 -0.000002 0.000002 -6.158225 -14.427871 20.161163 83.243723 -8.522334 5.851508 3.334060 4.548782 -0.154895 0.000000 -0.000001 0.000018 -0.000001 -0.000001 0.000001 -11.910540 16.053605 -22.251993 48.276231 13.570582 -6.232603 17.149353 9.534772 23.054163 0.000003 -0.000002 0.000006 -0.000000 -0.000001 0.000000 
0.091296 41.727356 -0.502429 -8.922996 -2.023860 -1.682459 -8.633415 -3.204102 2.194644 3.797964 -0.479771 2.056645 0.000000 0.000000 0.000000 3.806295 -0.410125 2.069780 9.100114 -4.559097 7.670185 9.248853 -22.438379 22.518218 0.000000 -0.000000 0.000001 0.663778 -0.192290 -5.754636 0.000000 0.000000 0.000000 -59.716658 6.527973 -5.135761 -70.092822 -84.218227 -72.950600 30.013262 -16.428463 56.619382 -20.382721 14.803679 -5.238120 -7.530080 33.621067 21.069219 -4.399796 -9.639976 -3.323775 0.000001 -0.000003 -0.000000 -4.383096 20.488179 12.184003 -0.365436 0.192954 0.812969 2.684592 0.003714 -5.862231 -0.000000 0.000004 -0.000003 -0.331759 -0.816152 16.140145 -0.146608 0.646604 -8.563620 -0.505483 0.606538 -19.006781 -0.000001 0.000001 0.000002 1.321706 -8.968754 12.530713 -2.676769 1.525862 -10.247868 2.304950 1.562674 7.784195 -0.000001 0.000000 -0.000001 0.853335 -2.433695 12.081146 0.000000 0.000000 0.000000 -46.489245 -16.793275 -2.362027 -70.952934 84.251893 73.912790 9.192898 42.647093 -65.952853 -2.363298 -8.301379 -0.118232 2.587221 -35.405440 -13.168467 3.535786 11.848953 7.302086 0.000002 -0.000001 -0.000001 5.031688 -19.367787 10.651158 1.180678 -0.255281 3.203807 1.233522 -0.054880 3.408449 0.000000 0.000002 0.000001 0.585756 -1.938607 9.317133 -0.084945 -0.293113 3.115401 -0.231135 -0.128796 8.277096 -0.000000 -0.000000 0.000001 -1.247438 9.762738 4.321609 -2.207250 -0.389378 6.599709 0.001545 -0.150063 0.144549 0.000000 -0.000001 0.000002 -7.339900 -6.777277 18.298410 72.940171 -8.329401 7.549182 1.927909 0.283039 -2.742088 0.000020 -0.000011 0.000014 -0.000000 -0.000001 0.000001 -11.061521 12.039396 -21.056259 37.421893 11.647773 -3.892300 16.432057 13.715781 24.777561 0.000026 -0.000001 0.000013 0.000003 -0.000000 0.000000 
